<svg width="98" height="19" viewBox="0 0 98 19" fill="none" xmlns="http://www.w3.org/2000/svg">
<path d="M7.23573 0C9.70288 0 11.6361 0.574127 13.0354 1.72238C14.4346 2.87063 15.1343 4.44948 15.1343 6.45892C15.1343 8.46837 14.4346 10.0472 13.0354 11.1955C11.6361 12.3258 9.70288 12.8909 7.23573 12.8909H2.04368V18.8385H0V0H7.23573ZM7.1805 11.1416C9.0953 11.1416 10.559 10.738 11.5717 9.9306C12.5843 9.10529 13.0906 7.94807 13.0906 6.45892C13.0906 4.9339 12.5843 3.76771 11.5717 2.96034C10.559 2.13503 9.0953 1.72238 7.1805 1.72238H2.04368V11.1416H7.1805Z" fill="#333333"/>
<path d="M32.7543 18.8385L28.3356 12.7833C27.8385 12.8371 27.3229 12.864 26.789 12.864H21.5969V18.8385H19.5533V0H26.789C29.2561 0 31.1894 0.574127 32.5886 1.72238C33.9879 2.87063 34.6875 4.44948 34.6875 6.45892C34.6875 7.93012 34.3009 9.17706 33.5276 10.1997C32.7727 11.2044 31.6865 11.9311 30.2688 12.3796L34.9913 18.8385H32.7543ZM26.7338 11.1686C28.6486 11.1686 30.1123 10.7559 31.1249 9.9306C32.1376 9.10529 32.6439 7.94807 32.6439 6.45892C32.6439 4.9339 32.1376 3.76771 31.1249 2.96034C30.1123 2.13503 28.6486 1.72238 26.7338 1.72238H21.5969V11.1686H26.7338Z" fill="#333333"/>
<path d="M47.2992 19C44.7952 19 42.8436 18.3003 41.4443 16.9009C40.045 15.5014 39.3454 13.4651 39.3454 10.7918V0H41.3891V10.711C41.3891 12.8999 41.8954 14.5326 42.908 15.6091C43.9206 16.6856 45.3844 17.2238 47.2992 17.2238C49.2324 17.2238 50.7053 16.6856 51.7179 15.6091C52.7306 14.5326 53.2369 12.8999 53.2369 10.711V0H55.2253V10.7918C55.2253 13.4651 54.5257 15.5014 53.1264 16.9009C51.7455 18.3003 49.8031 19 47.2992 19Z" fill="#333333"/>
<path d="M63.4274 1.72238V9.12323H73.4249V10.8456H63.4274V18.8385H61.3838V0H74.6401V1.72238H63.4274Z" fill="#333333"/>
<path d="M80.904 1.72238V9.12323H90.9015V10.8456H80.904V18.8385H78.8603V0H92.1166V1.72238H80.904Z" fill="#333333"/>
<path d="M95.5835 16.4837H98V18.8385H95.5835V16.4837Z" fill="#333333"/>
</svg>
